Coordinates
version=1
nRows=12
nColumns=24
inDegrees=yes

Units are S.I. units (second, meters, Newtons, ...)
Angles are in degrees.

endheader
time	pelvis_tilt	pelvis_list	pelvis_rotation	pelvis_tx	pelvis_ty	pelvis_tz	hip_flexion_r	hip_adduction_r	hip_rotation_r	knee_angle_r	ankle_angle_r	subtalar_angle_r	mtp_angle_r	hip_flexion_l	hip_adduction_l	hip_rotation_l	knee_angle_l	ankle_angle_l	subtalar_angle_l	mtp_angle_l	lumbar_extension	lumbar_bending	lumbar_rotation
      1.41633333	      3.13157412	     -2.67229128	     -8.11723414	      0.96133137	      0.99951769	      0.29561591	    -22.44119888	      5.78616573	     10.39223661	     -9.81091841	     16.42325334	     -1.30329400	      2.04545019	     25.14118117	     -4.25077103	     -5.24826085	      1.11005425	      9.96429345	     -8.97666464	     -2.75706766	     -2.95038124	     -0.75011045	      7.89658993
      1.42050000	      3.11572110	     -2.52864501	     -8.26472871	      0.96711477	      0.99885370	      0.29552456	    -22.64076710	      5.53792043	     10.39183331	    -10.00278229	     16.30645594	     -1.27402740	      2.03675407	     25.10195378	     -4.12387971	     -5.07291036	      0.52596465	     10.30493226	     -9.25759251	     -2.72758101	     -2.82785102	     -0.95032866	      7.96347436
      1.42466667	      3.08032982	     -2.39019980	     -8.38972156	      0.97295468	      0.99814631	      0.29537508	    -22.81765502	      5.30124369	     10.34908771	    -10.19878576	     16.17705977	     -1.19984027	      2.03881232	     25.08231031	     -3.98858025	     -4.82019341	     -0.06277756	     10.59612518	     -9.61202999	     -2.67376246	     -2.68824991	     -1.13118067	      8.16206876
      1.42883333	      3.04748567	     -2.24013706	     -8.55897810	      0.97883526	      0.99747314	      0.29527339	    -22.98047353	      5.03535291	     10.35122979	    -10.42791003	     16.02341733	     -1.15590353	      2.04308510	     25.03298940	     -3.85573857	     -4.69182161	     -0.61964432	     10.88989405	     -9.89072261	     -2.64725135	     -2.56646864	     -1.30575575	      8.22424925
      1.43300000	      3.01160936	     -2.10246931	     -8.66738761	      0.98477511	      0.99676837	      0.29507775	    -23.14247178	      4.80007984	     10.24839691	    -10.65420375	     15.88092357	     -1.01993186	      2.09290467	     24.97541569	     -3.70296768	     -4.40404111	     -1.14463725	     11.06708348	    -10.31282941	     -2.56417704	     -2.38636325	     -1.50080304	      8.49764834
      1.43716667	      2.98361318	     -1.95304565	     -8.82757592	      0.99076426	      0.99610476	      0.29492962	    -23.28913590	      4.52952083	     10.17456556	    -10.92961644	     15.73095870	     -0.88146660	      2.20573345	     24.87672618	     -3.55249223	     -4.19411640	     -1.62364406	     11.21213055	    -10.76339089	     -2.43108051	     -2.22967076	     -1.68489678	      8.67942693
      1.44133333	      2.95604453	     -1.80175710	     -8.95821674	      0.99679924	      0.99543133	      0.29472567	    -23.43926997	      4.26584947	     10.07751994	    -11.19503985	     15.55512494	     -0.74378634	      2.38299571	     24.77843767	     -3.38566812	     -4.00882967	     -2.08873492	     11.34031918	    -11.11111066	     -2.25507536	     -2.07145644	     -1.87415320	      8.83322918
      1.44550000	      2.91697202	     -1.64366265	     -9.09116689	      1.00290427	      0.99475576	      0.29452709	    -23.58643906	      3.99847585	     10.04190588	    -11.44250148	     15.32869984	     -0.70108091	      2.40903274	     24.69897023	     -3.21675293	     -3.92812597	     -2.57509183	     11.51788466	    -11.29123489	     -2.22311364	     -1.91186091	     -2.05729273	      8.85818071
      1.44966667	      2.89747840	     -1.47953519	     -9.21131678	      1.00905267	      0.99410369	      0.29427936	    -23.72008647	      3.71588328	      9.85700531	    -11.75571146	     15.15373354	     -0.46338223	      2.64119765	     24.56513985	     -3.02357840	     -3.75536719	     -2.96809977	     11.49356865	    -11.68631610	     -2.03979234	     -1.72584596	     -2.26983218	      9.12221483
      1.45383333	      2.88383202	     -1.30292904	     -9.31543579	      1.01525302	      0.99345931	      0.29400459	    -23.86658819	      3.42622022	      9.69251554	    -12.05172973	     14.92959425	     -0.28888730	      2.98250689	     24.42586480	     -2.80914230	     -3.62106327	     -3.34354852	     11.41370351	    -12.05272722	     -1.78501476	     -1.57468036	     -2.49824685	      9.24933783
      1.45800000	      2.83061228	     -1.12630494	     -9.42530998	      1.02148231	      0.99277877	      0.29371568	    -23.94495276	      3.14002368	      9.51355105	    -12.39883955	     14.70389266	     -0.10484302	      3.47716320	     24.32750345	     -2.60393753	     -3.55716529	     -3.70322109	     11.29981422	    -12.31189546	     -1.42404415	     -1.35673346	     -2.71042141	      9.40286322
      1.46216667	      2.79486546	     -0.95257223	     -9.51858161	      1.02778177	      0.99214263	      0.29341697	    -24.07180050	      2.86377730	      9.40878857	    -12.68204613	     14.35729471	     -0.05187348	      3.55364820	     24.21400110	     -2.39676098	     -3.55728958	     -4.05877495	     11.24383971	    -12.40558280	     -1.36403401	     -1.13794565	     -2.91653808	      9.39954545
